<svg xmlns="http://www.w3.org/2000/svg" viewBox="0 0 968 541.6" preserveAspectRatio="none"><title>fbi_2</title><g id="Layer_2" data-name="Layer 2"><g id="Layer_1-2" data-name="Layer 1"><polygon points="0 0.58 356.67 0.58 356.67 155.76 263.12 155.76 263.12 91.01 142.61 91.01 142.61 232.11 242.4 232.11 242.4 325.72 142.57 325.72 142.57 452.78 182.81 452.78 182.81 541.6 0 541.6 0 453.01 39.86 453.01 39.86 89.46 0 89.46 0 0.58"/><path d="M723.91,271.19,752.14,243V58.27L693.86,0H392.16V89.47h39.57v363.7H391.47v88H695.28l57.06-57.06V299.63ZM647.71,452.5H535.33V316.69H647.71Zm0-227.48H535.33V89.21H647.71Z"/><polygon points="968 88.64 968 0.64 785.11 0.64 785.11 88.64 823.63 88.64 823.63 453.59 785.11 453.59 785.11 541.6 968 541.6 968 453.59 928.9 453.59 928.9 88.64 968 88.64"/></g></g></svg>