<svg xmlns="http://www.w3.org/2000/svg" viewBox="0 0 69.03 92.95" preserveAspectRatio="none"><title>b</title><g id="Layer_2" data-name="Layer 2"><g id="Layer_1-2" data-name="Layer 1"><path d="M0,0H38.61c8.32,0,15.08,2.34,19.76,6.76,4.29,3.9,6.76,9.62,6.76,16.64,0,10.53-4.81,16.9-14.17,20.15v.39C61.62,46.93,69,54.47,69,66.82c0,7.54-2.34,13.65-6.76,18.2C57.46,90,49.92,93,40.3,93H0ZM38.48,40.82c11.31,0,17.81-6.63,17.81-16.77,0-10.53-6.76-16.38-17.55-16.38h-30V40.82ZM39.78,85c7.15,0,12.35-2.08,15.73-5.33,3-3,4.68-7.28,4.68-12.74,0-11.83-8.19-18.59-20.41-18.59H8.71V85Z"/></g></g></svg>