<svg xmlns="http://www.w3.org/2000/svg" viewBox="0 0 669.54 700.48" preserveAspectRatio="none"><title>irs_r</title><g id="Layer_2" data-name="Layer 2"><g id="Layer_1-2" data-name="Layer 1"><path d="M619.12,665.66c-12.1-8.2-26.21-18.43-40.32-34.82L365,362.53c58.49-10.25,102.84-28.68,137.12-57.35s50.44-67.59,50.44-120.84c0-77.83-38.33-133.13-113-161.81C399.31,6.15,348.9,0,288.38,0H0V18.43c38.3,4.1,62.53,10.25,72.6,22.53C84.69,53.27,90.75,75.8,90.75,114.7V571.45c0,45.06-6.06,73.73-16.13,86C64.54,667.72,40.34,675.91,0,680H0v20.48H290.41V680c-40.32-2-64.54-10.23-76.63-20.48s-18.16-34.82-18.16-73.73V376.88l58.49-2,248,325.64H669.54V680C649.37,677.94,633.24,673.84,619.12,665.66ZM195.62,338V75.8c0-16.38,4-24.58,10.08-28.66,6.06-6.16,24.19-8.2,54.46-8.2,44.36,0,78.65,6.15,104.87,18.43,50.41,22.53,74.6,65.55,74.6,124.94,0,65.54-28.21,108.54-82.68,131.09C324.69,325.67,270.24,333.87,195.62,338Z"/></g></g></svg>