<svg xmlns="http://www.w3.org/2000/svg" viewBox="0 0 467.88 729.16" preserveAspectRatio="none"><title>irs_s</title><g id="Layer_2" data-name="Layer 2"><g id="Layer_1-2" data-name="Layer 1"><path d="M24.19,503.84A388.05,388.05,0,0,0,84.68,616.49C127,665.65,177.44,690.22,240,690.22c32.27,0,62.51-10.25,84.71-30.73C350.88,637,363,608.29,363,569.37c0-34.82-12.11-65.54-38.33-90.11-14.11-16.38-48.4-41-100.84-73.73l-88.74-55.3C108.88,331.79,86.72,315.4,72.58,297c-30.25-32.76-44.36-69.63-44.36-110.59,0-53.25,16.13-96.26,52.44-133.13C114.94,18.42,161.32,0,219.81,0q33.29,0,84.71,18.43C338.78,30.71,357,36.86,361,36.86c14.11,0,22.19-4.09,28.25-10.23A66.22,66.22,0,0,0,399.31,0H421.5l22.17,225.3H419.48C403.35,157.71,375.1,110.61,336.8,84c-36.3-26.64-74.63-41-110.93-41-28.25,0-52.44,8.18-74.63,26.63C131.07,86,121,110.59,121,139.27s8.08,51.2,24.19,69.63c16.13,20.48,40.35,41,74.63,63.5l92.76,55.3c56.48,36.87,96.82,69.63,121,100.36,22.19,30.73,34.31,65.54,34.31,106.49,0,55.3-20.17,102.41-62.51,139.28q-60.52,55.29-157.31,55.3c-32.27,0-66.55-6.15-100.84-18.43q-54.45-18.42-60.49-18.43-18.17,0-24.21,12.3c-4,6.15-8.05,14.33-8.05,24.58H30.25L0,503.86H24.19v0Z"/></g></g></svg>