<svg xmlns="http://www.w3.org/2000/svg" viewBox="0 0 215.32 220.48" preserveAspectRatio="none"><title>nasa_n</title><g id="Layer_2" data-name="Layer 2"><g id="Layer_1-2" data-name="Layer 1"><path d="M215.32,220c-2.78.27-4.06.51-5.33.51-25.83,0-51.66-.09-77.49,0-3.51,0-5.81-.83-7.66-4.11-14.22-25.14-28.65-50.16-43-75.25-11.27-19.74-22.44-39.54-33.75-59.26-.58-1-2.1-1.49-3.18-2.22-.71,1.37-2,2.73-2,4.1,0,14.47.32,28.94.27,43.41,0,16.16-.12,32.32-.67,48.46-.48,13.9,3.3,25.89,13.63,35.53a31.69,31.69,0,0,1,2.58,3c.08.09,0,.31,0,1.09H1.88c2.91-3.73,5.49-7.22,8.27-10.54,4.67-5.6,5.72-12.24,5.72-19.18,0-50.82-.13-101.65.06-152.47,0-6.87-1.52-12.61-5.84-17.94C6.55,10.72,3.61,5.89,0,.66A28.47,28.47,0,0,1,4.14,0c26.49.06,53,.24,79.47.15,3.81,0,5.87,1.64,7.49,4.56,6.44,11.62,12.78,23.3,19.3,34.88,7.25,12.89,14.7,25.66,22,38.54,9.78,17.32,19.46,34.7,29.26,52a47,47,0,0,0,4.06,5.31l1.53-.26c.41-1.95,1.17-3.9,1.17-5.85.06-33.49.09-67-.13-100.47a18.61,18.61,0,0,0-2.94-9.09c-3.91-6.34-8.38-12.32-13-18.95h59.78c-4.56,6.52-8.95,12.44-12.89,18.63a15.35,15.35,0,0,0-2.47,7.73c-.1,54-.11,108,.24,162,0,3.7,2.69,7.62,4.81,11C205.84,206.59,210.33,212.71,215.32,220Z"/></g></g></svg>