<svg xmlns="http://www.w3.org/2000/svg" viewBox="0 0 184.89 234.16" preserveAspectRatio="none"><title>nasa_s</title><g id="Layer_2" data-name="Layer 2"><g id="Layer_1-2" data-name="Layer 1"><path d="M2,234.16V167.64c5.11,3.86,9.32,7.16,13.65,10.29,20.79,15,43.9,22.11,69.47,18.56a66.13,66.13,0,0,0,21.9-7.67c12.29-6.69,10.24-20,.78-27.16-5.95-4.49-13.31-7.27-20.31-10.19C70,144.18,52.09,138,35,129.95c-20.11-9.54-30.86-26.6-33.84-48.57C-1,65.43-.88,49.68,7.1,35.12,14.37,21.85,25.91,13.62,40,8.38,58.88,1.33,78.45,1.5,98,3A350.9,350.9,0,0,1,134.5,8.2c8,1.48,15.13,1.79,21.27-4.53,1.34-1.38,3.32-2.12,5.85-3.67V50.69c-4.43-2.78-8.28-5.21-12.14-7.61A115.15,115.15,0,0,0,109.61,27.5c-14.34-2.76-26.86,0-39,6.75-8.65,4.8-10.65,13.87-5.1,22.1S78.94,69.08,88.16,72.4a344.16,344.16,0,0,1,34.31,14.46,166.87,166.87,0,0,1,42.79,29.78c10.78,10.39,18.25,22.7,19.46,37.73,1.15,14.33-4,27.16-12.72,38.43-10.82,14-25.41,22.46-42.13,27.75a131.15,131.15,0,0,1-55.71,5.57c-14.09-1.71-27.93-5.53-41.86-8.53-3.81-.82-7.06-.57-10.24,2.1-5.21,4.37-10.69,8.42-16.11,12.52A25.22,25.22,0,0,1,2,234.16Z"/></g></g></svg>