<svg xmlns="http://www.w3.org/2000/svg" viewBox="0 0 239.81 215.89" preserveAspectRatio="none"><title>nasa_a</title><g id="Layer_2" data-name="Layer 2"><g id="Layer_1-2" data-name="Layer 1"><path d="M59.8,215.89H0c4.42-4.1,7.4-7.47,10.95-10,7.41-5.33,11.45-12.72,13.76-21.19,3.53-12.93,6.71-26,10.19-38.91,4.35-16.17,8.9-32.28,13.28-48.44,2.47-9.12,4.72-18.29,7.17-27.41Q60.9,49.27,66.63,28.67c1.23-4.4,1.52-8.22-1.95-12C60.27,11.8,56.43,6.43,51.86.67A37.63,37.63,0,0,1,56.31.07c32,0,64,.06,96-.07,4.29,0,6.1,1.17,7.63,5.57,7.08,20.38,15,40.48,22.28,60.77,7.65,21.19,14.92,42.51,22.53,63.72,6.32,17.6,12.93,35.1,19.31,52.68,2.37,6.53,3.94,13.4,6.8,19.68,2.07,4.53,5.68,8.36,9,13H125.68a15.63,15.63,0,0,1,1.91-3.3c11.77-11.58,10.9-24.46,5.1-38.61-2.81-6.87-6.41-9.07-13.68-8.86-18.65.53-37.33.25-56,.1-5.13,0-7.66,2.12-8.42,7.1-.7,4.6-1.9,9.12-2.69,13.7-1.73,10.11,1.95,18.87,7.05,27.24a16.6,16.6,0,0,1,1,1.69C60.11,214.72,59.93,215.11,59.8,215.89Zm40.61-76.57v.36c4.15,0,8.31-.05,12.46,0,4.62.08,6.71-2.79,5-7.09-1.2-3.07-2.54-6.09-3.69-9.18q-7.07-19.14-14.06-38.31c-2.5-6.84-4.84-13.75-7.53-20.52C92,63.1,90.27,62.08,89,60.84c-1.09,1.34-2.67,2.51-3.2,4Q82,76.15,78.57,87.57c-4.5,15.09-8.81,30.24-13.3,45.33-1.59,5.35-1,6.34,4.75,6.39C80.15,139.38,90.28,139.32,100.41,139.32Z"/></g></g></svg>