<svg xmlns="http://www.w3.org/2000/svg" viewBox="0 0 70.33 96.46" preserveAspectRatio="none"><title>s</title><g id="Layer_2" data-name="Layer 2"><g id="Layer_1-2" data-name="Layer 1"><path d="M0,64.61H8.71c.91,15.73,11.57,24.57,29,24.57,13.65,0,23.79-6.89,23.79-19.5,0-13.13-8.71-16.25-28.6-20.28C15.73,46,3.64,40.82,3.64,24.57,3.64,9.75,16.12,0,34.71,0,55.38,0,65.78,11.18,67.47,27.17H59C57.46,14,48.1,7.28,34.84,7.28c-14.17,0-22.75,6.76-22.75,17,0,11.05,8.58,14.43,25.22,17.55,18.07,3.51,33,7.93,33,27.43,0,16.51-13.26,27.17-32.76,27.17C13.13,96.46,1,82.68,0,64.61Z"/></g></g></svg>